{"title":"Killing Them Softly 2012 DVDRip XviD MP3 - TODE","uid":7971948,"size":700965305,"categoryP":"video","categoryS":"movies","magnet":"?xt=urn:btih:9cda3d9caa7955461a898ee0d3a200c664718c44&amp;dn=Killing+Them+Softly+2012+DVDRip+XviD+MP3+-+TODE&amp;tr=udp%3A%2F%2Ftracker.openbittorrent.com%3A80&amp;tr=udp%3A%2F%2Fopen.demonii.com%3A1337&amp;tr=udp%3A%2F%2Ftracker.coppersurfer.tk%3A6969&amp;tr=udp%3A%2F%2Fexodus.desync.com%3A6969","seeders":1,"leechers":0,"uploader":"xxxlavalxxx","files":2,"time":1356877515,"description":" &lt;a href=&quot;http://www.shotpix.com/images/62260706879497574208.jpg&quot; rel=&quot;nofollow&quot; target=&quot;_NEW&quot;&gt;http://www.shotpix.com/images/62260706879497574208.jpg&lt;/a&gt;\n\n &lt;a href=&quot;\nhttp://www.imdb.com/title/tt1764234/&quot; rel=&quot;nofollow&quot; target=&quot;_NEW&quot;&gt;\nhttp://www.imdb.com/title/tt1764234/&lt;/a&gt;\n\n\nJackie Cogan is an enforcer hired to restore order after three dumb guys rob a Mob protected card game, causing the local criminal economy to collapse.\n \n\n\nDirector: \nAndrew Dominik\n\n Writers: \nAndrew Dominik (screenplay), George V. Higgins (novel)\n \nStars:\n Brad Pitt, Ray Liotta and Richard Jenkins\n\nGenres:\n Crime , Drama , Thriller\n\nCountry:\nUSA \n\nLanguage:\nEnglish \n\nThanks : nLiBRA\n\n\nFormat                                   : AVI\nFormat/Info                              : Audio Video Interleave\nFile size                                : 668 MiB\nDuration                                 : 1h 37mn\nOverall bit rate                         : 961 Kbps\nWriting application                      : Lavf54.32.100\n\nVideo\nID                                       : 0\nFormat                                   : MPEG-4 Visual\nFormat profile                           : Simple@L3\nFormat settings, BVOP                    : No\nFormat settings, QPel                    : No\nFormat settings, GMC                     : No warppoints\nFormat settings, Matrix                  : Default (H.263)\nCodec ID                                 : XVID\nCodec ID/Hint                            : XviD\nDuration                                 : 1h 37mn\nBit rate                                 : 821 Kbps\nWidth                                    : 640 pixels\nHeight                                   : 352 pixels\nDisplay aspect ratio                     : 16:9\nFrame rate                               : 23.976 fps\nColor space                              : YUV\nChroma subsampling                       : 4:2:0\nBit depth                                : 8 bits\nScan type                                : Progressive\nCompression mode                         : Lossy\nBits/(Pixel*Frame)                       : 0.152\nStream size                              : 571 MiB (85%)\nWriting library                          : XviD 64\n\nAudio\nID                                       : 1\nFormat                                   : MPEG Audio\nFormat version                           : Version 1\nFormat profile                           : Layer 3\nCodec ID                                 : 55\nCodec ID/Hint                            : MP3\nDuration                                 : 1h 37mn\nBit rate mode                            : Constant\nBit rate                                 : 128 Kbps\nChannel(s)                               : 2 channels\nSampling rate                            : 44.1 KHz\nCompression mode                         : Lossy\nStream size                              : 89.0 MiB (13%)\nAlignment                                : Aligned on interleaves\nInterleave, duration                     : 26 ms (0.63 video frame)\nInterleave, preload duration             : 26 ms\n\n\n\n &lt;a href=&quot;\nhttp://www.shotpix.com/images/03167579227973456494.png&quot; rel=&quot;nofollow&quot; target=&quot;_NEW&quot;&gt;\nhttp://www.shotpix.com/images/03167579227973456494.png&lt;/a&gt; &lt;a href=&quot;\nhttp://www.shotpix.com/images/43951871069700807389.png&quot; rel=&quot;nofollow&quot; target=&quot;_NEW&quot;&gt;\nhttp://www.shotpix.com/images/43951871069700807389.png&lt;/a&gt; &lt;a href=&quot;\nhttp://www.shotpix.com/images/67099579214996673634.png&quot; rel=&quot;nofollow&quot; target=&quot;_NEW&quot;&gt;\nhttp://www.shotpix.com/images/67099579214996673634.png&lt;/a&gt; &lt;a href=&quot;\nhttp://www.shotpix.com/images/88982873672581861626.png&quot; rel=&quot;nofollow&quot; target=&quot;_NEW&quot;&gt;\nhttp://www.shotpix.com/images/88982873672581861626.png&lt;/a&gt; &lt;a href=&quot;\nhttp://www.shotpix.com/images/32230219017759732316.png&quot; rel=&quot;nofollow&quot; target=&quot;_NEW&quot;&gt;\nhttp://www.shotpix.com/images/32230219017759732316.png&lt;/a&gt;","torrent":{"xt":"urn:btih:9cda3d9caa7955461a898ee0d3a200c664718c44","amp;dn":"Killing+Them+Softly+2012+DVDRip+XviD+MP3+-+TODE","amp;tr":["udp%3A%2F%2Ftracker.openbittorrent.com%3A80","udp%3A%2F%2Fopen.demonii.com%3A1337","udp%3A%2F%2Ftracker.coppersurfer.tk%3A6969","udp%3A%2F%2Fexodus.desync.com%3A6969"],"infoHash":"9cda3d9caa7955461a898ee0d3a200c664718c44","infoHashBuffer":{"type":"Buffer","data":[156,218,61,156,170,121,85,70,26,137,142,224,211,162,0,198,100,113,140,68]},"announce":[],"urlList":[]}}